<svg xmlns="http://www.w3.org/2000/svg" width="13" height="10.94" viewBox="0 0 13 10.94"><defs><style>.a{fill:#41a593;}</style></defs><g transform="translate(0 -6.348)"><path class="a" d="M7.845,8.226a2.362,2.362,0,0,1,1.1,1.755,1.906,1.906,0,1,0-1.1-1.755ZM6.6,12.129a1.907,1.907,0,1,0-1.907-1.906A1.907,1.907,0,0,0,6.6,12.129Zm.809.13H5.787A2.444,2.444,0,0,0,3.346,14.7v1.978l.005.031.136.043a11.112,11.112,0,0,0,3.319.535,6.814,6.814,0,0,0,2.9-.544l.127-.064h.014V14.7A2.443,2.443,0,0,0,7.4,12.259Zm3.154-1.968H8.954a2.35,2.35,0,0,1-.725,1.637A2.9,2.9,0,0,1,10.3,14.7v.61a6.569,6.569,0,0,0,2.559-.537l.127-.065H13V12.732A2.444,2.444,0,0,0,10.559,10.291Zm-7.309-.13a1.894,1.894,0,0,0,1.014-.294,2.36,2.36,0,0,1,.887-1.5c0-.036.005-.071.005-.107A1.906,1.906,0,1,0,3.25,10.161Zm1.712,1.766A2.351,2.351,0,0,1,4.238,10.3c-.06,0-.118-.009-.179-.009H2.441A2.444,2.444,0,0,0,0,12.732v1.979l.005.031.136.043A11.446,11.446,0,0,0,2.89,15.3v-.6A2.9,2.9,0,0,1,4.963,11.928Z"/></g></svg>