<svg xmlns="http://www.w3.org/2000/svg" width="13.689" height="11.716" viewBox="0 0 13.689 11.716"><defs><style>.a{fill:#41a593;}</style></defs><g transform="translate(0 -1.76)"><g transform="translate(0 1.761)"><path class="a" d="M4.92,6.481a1.8,1.8,0,0,0,1.8-1.8c0-.619.218-1.186-.261-1.508a6.125,6.125,0,0,0-1.918-.288,2.5,2.5,0,0,0-1.331.627c-.389.329-.082.619-.082,1.168A1.8,1.8,0,0,0,4.92,6.481ZM3.668,4.508a.967.967,0,0,1,.554.049l.551-.268s-.281.406-.029.268a3.121,3.121,0,0,1,1.509-.047,1.36,1.36,0,0,1,.021.216,1.315,1.315,0,1,1-2.607-.218Z" transform="translate(-1.323 -2.256)"/><path class="a" d="M17.745,3.936a2.166,2.166,0,0,0-.039-.3,2.131,2.131,0,0,0-2.252-1.871,1.728,1.728,0,0,0-1.772,1.721,2.065,2.065,0,0,0-.092.492c-1.813.317-1.614,2.157-.507,2.188a2.124,2.124,0,0,1,.529-1.723,2.084,2.084,0,0,0,4.085.154,2.753,2.753,0,0,1,.385,1.57C19.827,6.148,18.969,4.154,17.745,3.936ZM15.67,5.6a1.5,1.5,0,0,1-1.5-1.469c.3-.108.518-.624.518-.624s.176.061.176.643c.309.108.845-.9.845-.9v.8a6.442,6.442,0,0,0,1.412-.03l.04.034c0,.017.005.034.005.052A1.5,1.5,0,0,1,15.67,5.6Z" transform="translate(-5.381 -1.761)"/><path class="a" d="M10.726,9.769H9.106l-2.158,2.6L4.861,9.8H2.487L0,12.531l.521.537L2.3,11.55V14.5h.357v2.239H2.431V17H3.465V14.5h.387V17H4.884v-.263H4.657V14.5H5.09V11.605l1.423,1.461.582-.143L7.417,13l1.612-1.845.092.731-1.5,2.573H9.351V16.7H9.124v.261h1.033V16.7h0v-2.24h.386v2.5h1.033V16.7H11.35v-2.24h1.339L11.369,11.89l.072-.9,1.26,1.689.835-.208-2-2.7Z" transform="translate(0 -5.282)"/></g></g></svg>